<?xml version="1.0" standalone="no"?>
<!DOCTYPE svg PUBLIC "-//W3C//DTD SVG 20010904//EN"
 "http://www.w3.org/TR/2001/REC-SVG-20010904/DTD/svg10.dtd">
<svg version="1.0" xmlns="http://www.w3.org/2000/svg"
 width="349.000000pt" height="176.000000pt" viewBox="0 0 349.000000 176.000000"
 preserveAspectRatio="xMidYMid meet">

<g transform="translate(0.000000,176.000000) scale(0.100000,-0.100000)"
fill="#000000" stroke="none">
<path d="M2110 1750 c-553 -7 -554 -7 -718 -73 -253 -103 -456 -358 -506 -634
-13 -73 -14 -54 -15 315 l-1 392 -435 0 -435 0 0 -34 c0 -64 31 -208 61 -288
58 -150 183 -308 315 -399 96 -65 233 -119 369 -144 39 -8 39 -8 -38 -21 -288
-51 -541 -261 -644 -535 -32 -86 -63 -230 -63 -296 l0 -34 933 4 c1023 4 976
1 1145 67 108 41 214 114 304 208 112 117 170 226 226 422 7 25 10 -69 11
-327 l1 -363 54 0 c116 0 278 49 400 122 91 54 216 174 277 267 81 124 139
301 139 427 l0 54 -362 1 c-259 1 -353 4 -328 11 111 31 202 68 268 106 95 56
220 176 283 271 81 124 139 301 139 427 l0 54 -424 0 c-233 0 -430 1 -438 3
-7 1 -240 0 -518 -3z m505 -857 c-3 -10 -84 -13 -362 -12 -256 1 -348 4 -323
11 196 56 305 114 422 226 125 120 212 270 251 434 10 46 12 7 15 -297 1 -192
0 -356 -3 -362z m-1000 -24 c-279 -40 -525 -219 -652 -474 -38 -76 -62 -148
-78 -238 -12 -65 -13 -32 -14 326 l-1 397 403 -1 c270 -1 382 -4 342 -10z"/>
</g>
</svg>
